<svg id="visual" viewBox="0 0 900 600" width="900" height="600" xmlns="http://www.w3.org/2000/svg" xmlns:xlink="http://www.w3.org/1999/xlink" version="1.1"><rect x="0" y="0" width="900" height="600" fill="#080808"></rect><g fill="#191919"><circle r="63" cx="413" cy="238"></circle><circle r="36" cx="734" cy="77"></circle><circle r="41" cx="113" cy="503"></circle><circle r="36" cx="428" cy="79"></circle><circle r="39" cx="604" cy="590"></circle><circle r="40" cx="302" cy="338"></circle><circle r="43" cx="640" cy="444"></circle><circle r="45" cx="838" cy="386"></circle><circle r="39" cx="80" cy="374"></circle><circle r="56" cx="752" cy="239"></circle><circle r="50" cx="198" cy="129"></circle><circle r="42" cx="408" cy="527"></circle><circle r="49" cx="542" cy="5"></circle><circle r="60" cx="22" cy="229"></circle><circle r="45" cx="745" cy="531"></circle><circle r="40" cx="479" cy="357"></circle><circle r="36" cx="270" cy="22"></circle><circle r="41" cx="604" cy="165"></circle></g></svg>