<svg id="visual" viewBox="0 0 900 600" width="900" height="600" xmlns="http://www.w3.org/2000/svg" xmlns:xlink="http://www.w3.org/1999/xlink" version="1.1"><g stroke-width="1" stroke-linejoin="bevel"><path d="M485 313L497 198L405 308Z" fill="#171819" stroke="#171819"></path><path d="M497 198L369 224L405 308Z" fill="#242525" stroke="#242525"></path><path d="M375 84L309 234L369 224Z" fill="#191a1c" stroke="#191a1c"></path><path d="M369 224L309 234L405 308Z" fill="#272728" stroke="#272728"></path><path d="M385 437L530 382L485 313Z" fill="#1e1f21" stroke="#1e1f21"></path><path d="M485 313L621 318L497 198Z" fill="#141517" stroke="#141517"></path><path d="M637 185L563 129L497 198Z" fill="#2f2f2f" stroke="#2f2f2f"></path><path d="M497 198L375 84L369 224Z" fill="#272728" stroke="#272728"></path><path d="M309 234L287 305L405 308Z" fill="#292a2a" stroke="#292a2a"></path><path d="M405 308L385 437L485 313Z" fill="#1e1f21" stroke="#1e1f21"></path><path d="M563 129L488 84L497 198Z" fill="#242525" stroke="#242525"></path><path d="M488 84L375 84L497 198Z" fill="#1e1f21" stroke="#1e1f21"></path><path d="M530 382L621 318L485 313Z" fill="#1e1f21" stroke="#1e1f21"></path><path d="M267 363L385 437L405 308Z" fill="#292a2a" stroke="#292a2a"></path><path d="M621 318L637 185L497 198Z" fill="#1e1f21" stroke="#1e1f21"></path><path d="M530 382L561 417L621 318Z" fill="#1e1f21" stroke="#1e1f21"></path><path d="M477 488L561 417L530 382Z" fill="#191a1c" stroke="#191a1c"></path><path d="M184 321L267 363L287 305Z" fill="#242525" stroke="#242525"></path><path d="M287 305L267 363L405 308Z" fill="#2f2f2f" stroke="#2f2f2f"></path><path d="M621 318L663 185L637 185Z" fill="#141517" stroke="#141517"></path><path d="M637 185L686 76L563 129Z" fill="#292a2a" stroke="#292a2a"></path><path d="M499 0L427 0L488 84Z" fill="#191a1c" stroke="#191a1c"></path><path d="M305 62L229 175L309 234Z" fill="#272728" stroke="#272728"></path><path d="M309 234L229 175L287 305Z" fill="#242525" stroke="#242525"></path><path d="M427 0L305 62L375 84Z" fill="#1e1f21" stroke="#1e1f21"></path><path d="M375 84L305 62L309 234Z" fill="#2c2c2d" stroke="#2c2c2d"></path><path d="M313 494L400 484L385 437Z" fill="#292a2a" stroke="#292a2a"></path><path d="M385 437L477 488L530 382Z" fill="#242525" stroke="#242525"></path><path d="M400 484L477 488L385 437Z" fill="#292a2a" stroke="#292a2a"></path><path d="M499 0L488 84L596 0Z" fill="#2c2c2d" stroke="#2c2c2d"></path><path d="M488 84L427 0L375 84Z" fill="#1e1f21" stroke="#1e1f21"></path><path d="M596 0L488 84L563 129Z" fill="#242525" stroke="#242525"></path><path d="M663 411L703 328L621 318Z" fill="#171819" stroke="#171819"></path><path d="M621 318L703 328L663 185Z" fill="#292a2a" stroke="#292a2a"></path><path d="M663 411L621 318L561 417Z" fill="#2c2c2d" stroke="#2c2c2d"></path><path d="M620 511L663 411L561 417Z" fill="#242525" stroke="#242525"></path><path d="M229 175L184 321L287 305Z" fill="#2c2c2d" stroke="#2c2c2d"></path><path d="M267 363L313 494L385 437Z" fill="#292a2a" stroke="#292a2a"></path><path d="M206 460L313 494L267 363Z" fill="#212223" stroke="#212223"></path><path d="M400 484L508 600L477 488Z" fill="#212223" stroke="#212223"></path><path d="M686 76L596 0L563 129Z" fill="#272728" stroke="#272728"></path><path d="M805 189L686 76L663 185Z" fill="#141517" stroke="#141517"></path><path d="M663 185L686 76L637 185Z" fill="#1e1f21" stroke="#1e1f21"></path><path d="M184 321L182 390L267 363Z" fill="#171819" stroke="#171819"></path><path d="M427 0L270 0L305 62Z" fill="#272728" stroke="#272728"></path><path d="M305 62L162 115L229 175Z" fill="#2c2c2d" stroke="#2c2c2d"></path><path d="M87 215L120 334L184 321Z" fill="#292a2a" stroke="#292a2a"></path><path d="M797 360L763 272L703 328Z" fill="#1e1f21" stroke="#1e1f21"></path><path d="M477 488L620 511L561 417Z" fill="#1e1f21" stroke="#1e1f21"></path><path d="M508 600L620 511L477 488Z" fill="#212223" stroke="#212223"></path><path d="M797 360L703 328L663 411Z" fill="#1e1f21" stroke="#1e1f21"></path><path d="M703 328L763 272L663 185Z" fill="#2f2f2f" stroke="#2f2f2f"></path><path d="M270 0L162 115L305 62Z" fill="#2f2f2f" stroke="#2f2f2f"></path><path d="M184 321L120 334L182 390Z" fill="#191a1c" stroke="#191a1c"></path><path d="M182 390L206 460L267 363Z" fill="#292a2a" stroke="#292a2a"></path><path d="M87 215L184 321L229 175Z" fill="#191a1c" stroke="#191a1c"></path><path d="M182 390L85 470L206 460Z" fill="#1c1d1e" stroke="#1c1d1e"></path><path d="M361 600L400 484L313 494Z" fill="#272728" stroke="#272728"></path><path d="M361 600L508 600L400 484Z" fill="#1c1d1e" stroke="#1c1d1e"></path><path d="M816 98L704 0L686 76Z" fill="#242525" stroke="#242525"></path><path d="M686 76L704 0L596 0Z" fill="#272728" stroke="#272728"></path><path d="M314 600L361 600L313 494Z" fill="#242525" stroke="#242525"></path><path d="M763 272L805 189L663 185Z" fill="#141517" stroke="#141517"></path><path d="M162 115L87 215L229 175Z" fill="#171819" stroke="#171819"></path><path d="M731 533L797 360L663 411Z" fill="#141517" stroke="#141517"></path><path d="M763 272L900 231L805 189Z" fill="#191a1c" stroke="#191a1c"></path><path d="M508 600L581 600L620 511Z" fill="#2c2c2d" stroke="#2c2c2d"></path><path d="M620 511L731 533L663 411Z" fill="#171819" stroke="#171819"></path><path d="M195 600L314 600L313 494Z" fill="#292a2a" stroke="#292a2a"></path><path d="M270 0L161 0L162 115Z" fill="#272728" stroke="#272728"></path><path d="M162 115L92 106L87 215Z" fill="#191a1c" stroke="#191a1c"></path><path d="M161 0L92 106L162 115Z" fill="#2f2f2f" stroke="#2f2f2f"></path><path d="M0 324L81 380L120 334Z" fill="#2f2f2f" stroke="#2f2f2f"></path><path d="M120 334L81 380L182 390Z" fill="#292a2a" stroke="#292a2a"></path><path d="M206 460L195 600L313 494Z" fill="#191a1c" stroke="#191a1c"></path><path d="M805 189L816 98L686 76Z" fill="#242525" stroke="#242525"></path><path d="M900 231L816 98L805 189Z" fill="#242525" stroke="#242525"></path><path d="M714 600L731 533L620 511Z" fill="#292a2a" stroke="#292a2a"></path><path d="M81 380L85 470L182 390Z" fill="#141517" stroke="#141517"></path><path d="M85 470L195 600L206 460Z" fill="#1c1d1e" stroke="#1c1d1e"></path><path d="M581 600L714 600L620 511Z" fill="#1e1f21" stroke="#1e1f21"></path><path d="M900 316L763 272L797 360Z" fill="#2c2c2d" stroke="#2c2c2d"></path><path d="M0 168L0 324L87 215Z" fill="#1c1d1e" stroke="#1c1d1e"></path><path d="M87 215L0 324L120 334Z" fill="#191a1c" stroke="#191a1c"></path><path d="M161 0L82 0L92 106Z" fill="#292a2a" stroke="#292a2a"></path><path d="M808 526L797 360L731 533Z" fill="#292a2a" stroke="#292a2a"></path><path d="M900 316L900 231L763 272Z" fill="#171819" stroke="#171819"></path><path d="M776 600L808 526L731 533Z" fill="#141517" stroke="#141517"></path><path d="M81 380L0 428L85 470Z" fill="#2f2f2f" stroke="#2f2f2f"></path><path d="M0 168L87 215L92 106Z" fill="#191a1c" stroke="#191a1c"></path><path d="M900 370L900 316L797 360Z" fill="#1c1d1e" stroke="#1c1d1e"></path><path d="M0 75L0 168L92 106Z" fill="#171819" stroke="#171819"></path><path d="M900 70L830 0L816 98Z" fill="#212223" stroke="#212223"></path><path d="M816 98L830 0L704 0Z" fill="#191a1c" stroke="#191a1c"></path><path d="M900 464L900 370L797 360Z" fill="#212223" stroke="#212223"></path><path d="M714 600L776 600L731 533Z" fill="#141517" stroke="#141517"></path><path d="M808 526L900 464L797 360Z" fill="#292a2a" stroke="#292a2a"></path><path d="M82 0L0 75L92 106Z" fill="#171819" stroke="#171819"></path><path d="M0 324L0 428L81 380Z" fill="#1c1d1e" stroke="#1c1d1e"></path><path d="M85 470L60 600L195 600Z" fill="#272728" stroke="#272728"></path><path d="M900 231L900 70L816 98Z" fill="#171819" stroke="#171819"></path><path d="M900 600L900 464L808 526Z" fill="#141517" stroke="#141517"></path><path d="M0 428L0 477L85 470Z" fill="#272728" stroke="#272728"></path><path d="M82 0L0 0L0 75Z" fill="#1e1f21" stroke="#1e1f21"></path><path d="M900 70L900 0L830 0Z" fill="#1e1f21" stroke="#1e1f21"></path><path d="M0 477L60 600L85 470Z" fill="#191a1c" stroke="#191a1c"></path><path d="M0 477L0 600L60 600Z" fill="#191a1c" stroke="#191a1c"></path><path d="M776 600L900 600L808 526Z" fill="#1c1d1e" stroke="#1c1d1e"></path></g></svg>